<?xml version="1.0" standalone="no"?>
<!DOCTYPE svg PUBLIC "-//W3C//DTD SVG 20010904//EN"
 "http://www.w3.org/TR/2001/REC-SVG-20010904/DTD/svg10.dtd">
<svg version="1.0" xmlns="http://www.w3.org/2000/svg"
 width="928.000000pt" height="928.000000pt" viewBox="0 0 928.000000 928.000000"
 preserveAspectRatio="xMidYMid meet">
<metadata>
Created by potrace 1.14, written by Peter Selinger 2001-2017
</metadata>
<g transform="translate(0.000000,928.000000) scale(0.100000,-0.100000)"
fill="#000000" stroke="none">
<path d="M4670 8749 c-57 -11 -150 -49 -150 -60 0 -5 -6 -9 -13 -9 -19 0 -126
-109 -162 -166 -56 -85 -87 -180 -101 -299 -16 -146 2 -362 41 -497 8 -27 11
-48 7 -48 -4 0 -2 -4 3 -8 6 -4 19 -26 29 -50 21 -47 46 -74 46 -50 0 8 -4 18
-9 23 -13 15 -30 94 -36 170 -3 38 -8 72 -11 76 -2 4 0 11 6 14 6 4 7 12 3 18
-9 13 -9 68 1 212 11 155 27 229 72 322 36 75 126 176 181 203 15 8 35 20 43
27 31 24 184 37 227 18 10 -5 20 -9 23 -10 3 0 23 -10 45 -22 89 -47 173 -160
222 -300 33 -94 24 -275 -21 -443 -17 -63 -133 -312 -148 -318 -4 -2 -8 -8 -8
-13 0 -5 -22 -46 -50 -90 -27 -44 -50 -83 -50 -85 0 -3 -4 -10 -10 -17 -5 -7
-35 -46 -66 -87 -31 -41 -91 -109 -133 -150 -74 -74 -148 -160 -137 -160 3 0
-2 -9 -11 -19 -16 -20 -17 -19 -53 9 -27 22 -134 66 -180 75 -135 26 -269 83
-482 206 -288 166 -463 344 -523 535 -20 61 -27 202 -14 274 12 65 59 154 103
193 61 54 112 72 211 71 108 -1 117 -2 220 -47 104 -45 261 -234 379 -458 51
-95 87 -189 88 -231 1 -16 5 -28 11 -28 11 0 3 122 -12 180 -20 81 -97 260
-144 335 -63 103 -130 183 -199 241 -30 25 -143 82 -176 89 -12 2 -26 6 -30 9
-28 17 -149 24 -212 12 -55 -11 -162 -64 -198 -99 -58 -56 -99 -143 -120 -252
-10 -52 -5 -218 7 -265 14 -53 52 -151 63 -165 5 -5 23 -32 40 -60 46 -71 199
-222 295 -288 44 -31 84 -57 88 -57 3 0 30 -16 60 -35 30 -19 55 -32 55 -29 0
3 12 -3 28 -14 93 -64 310 -148 437 -168 70 -11 169 -45 203 -71 27 -20 31
-28 25 -51 -13 -50 -6 -128 17 -171 26 -52 37 -47 21 11 -12 46 -14 78 -7 118
2 14 5 30 5 35 2 17 43 -57 47 -84 8 -46 15 -61 25 -55 18 11 -3 103 -33 147
-36 50 -25 66 196 277 37 35 87 91 112 125 24 33 48 65 52 70 36 47 168 272
210 357 30 61 69 162 77 198 1 8 8 33 13 55 20 72 26 138 26 245 -1 126 -30
223 -100 335 -43 68 -145 177 -193 203 -73 41 -184 58 -271 41z"/>
<path d="M5095 7206 c-27 -7 -65 -20 -82 -29 -18 -10 -36 -18 -40 -18 -13 -2
-105 -79 -147 -123 -63 -66 -128 -173 -143 -233 -2 -7 -5 -21 -7 -30 -3 -10
-5 -18 -7 -18 -1 0 -3 -9 -5 -20 -2 -11 -6 -33 -9 -50 -17 -85 -12 -290 10
-415 7 -42 51 -200 65 -235 6 -16 11 -31 10 -33 -2 -5 29 -102 40 -122 6 -12
13 -29 15 -38 7 -37 62 -142 122 -233 57 -86 103 -185 103 -223 0 -8 -15 -25
-32 -37 -57 -40 -92 -86 -103 -136 -9 -46 8 -41 30 8 17 37 78 99 97 99 14 0
0 -50 -27 -96 -32 -55 -28 -64 10 -27 30 30 55 81 55 111 0 21 22 44 49 50 15
4 137 4 296 0 79 -1 187 12 305 38 14 3 36 7 50 10 14 3 61 14 105 26 44 11
85 21 90 22 91 19 285 108 385 177 74 51 190 160 190 179 0 5 5 10 10 10 6 0
16 12 23 28 6 15 14 29 17 32 7 7 28 54 26 61 0 3 4 12 10 20 35 43 61 270 43
369 -27 145 -172 276 -339 305 -143 25 -329 -19 -455 -108 -96 -69 -222 -200
-310 -322 -41 -58 -109 -175 -106 -185 0 -3 -4 -21 -9 -40 -12 -44 -12 -50 1
-50 5 0 8 4 5 9 -7 11 56 115 108 175 162 189 402 380 504 401 9 2 35 8 57 13
69 15 212 5 257 -19 10 -5 18 -7 18 -4 0 7 80 -46 100 -66 150 -154 115 -455
-77 -646 -100 -99 -204 -162 -388 -236 -53 -21 -231 -73 -290 -84 -11 -2 -36
-8 -56 -13 -108 -29 -202 -40 -399 -44 -80 -2 -158 -9 -174 -15 -33 -13 -46
-3 -46 35 0 32 -39 120 -102 229 -84 147 -148 329 -198 560 -27 125 -34 190
-32 290 1 44 2 92 2 106 0 40 36 173 61 221 82 163 246 283 385 279 162 -3
305 -138 349 -328 12 -50 13 -201 2 -253 -3 -14 -8 -41 -11 -61 -3 -20 -8 -42
-10 -50 -6 -15 -15 -60 -21 -95 -2 -12 -8 -31 -14 -43 -7 -11 -9 -21 -7 -21 7
0 -44 -142 -56 -157 -6 -7 -8 -13 -4 -13 4 0 -10 -25 -29 -56 -38 -59 -42 -77
-9 -44 59 61 100 121 141 210 30 65 88 234 97 280 2 14 9 45 14 70 5 25 10 54
11 65 1 47 0 142 -3 165 -7 50 -54 169 -85 215 -17 25 -31 48 -31 51 0 8 -83
84 -91 84 -4 0 -14 6 -21 13 -50 48 -202 76 -293 53z"/>
<path d="M4647 5063 c-1 -1 -83 -5 -182 -8 -299 -12 -436 -19 -550 -30 -105
-9 -193 -16 -270 -20 -44 -2 -80 -5 -80 -5 0 -1 -103 -3 -230 -5 -126 -1 -241
-7 -255 -13 -14 -5 -28 -10 -33 -11 -39 -5 -57 -15 -57 -33 0 -18 4 -20 38
-14 20 4 48 9 62 12 30 4 120 6 335 5 88 0 183 1 210 4 28 2 100 7 160 10 61
3 139 8 175 10 396 22 876 22 1195 0 123 -8 220 -17 225 -20 3 -2 35 -7 70
-11 100 -11 128 -15 265 -44 50 -11 101 -22 115 -24 35 -7 173 -44 202 -55 12
-5 26 -9 30 -10 26 -5 138 -48 208 -79 114 -51 218 -131 221 -169 4 -50 -2
-87 -21 -123 -23 -45 -51 -65 -68 -48 -7 7 -32 11 -57 9 -24 -1 -53 3 -63 8
-10 5 -32 12 -48 15 -16 2 -29 5 -29 6 0 2 -17 6 -55 14 -14 3 -56 13 -95 21
-38 9 -83 18 -100 19 -16 2 -46 7 -65 10 -19 3 -53 8 -75 11 -93 13 -112 15
-142 20 -40 6 -132 15 -198 20 -27 2 -81 7 -120 10 -261 23 -934 23 -1196 0
-31 -2 -90 -7 -130 -10 -95 -7 -156 -13 -249 -25 -41 -5 -97 -12 -125 -15 -51
-7 -63 -8 -125 -19 -19 -3 -46 -8 -60 -10 -32 -5 -87 -15 -125 -21 -16 -3 -39
-8 -50 -9 -11 -2 -52 -11 -90 -19 -39 -9 -82 -18 -95 -21 -14 -3 -40 -9 -58
-15 -18 -5 -35 -10 -37 -10 -3 -1 -6 -1 -7 -2 -2 0 -11 -2 -20 -4 -45 -8 -311
-96 -324 -106 -6 -5 -14 -6 -17 -2 -4 3 -7 1 -7 -5 0 -7 -6 -12 -12 -12 -7 0
-42 -14 -76 -30 -35 -17 -67 -30 -71 -30 -10 0 -101 81 -101 90 0 16 142 112
146 98 0 -2 8 5 18 15 10 9 26 17 37 17 10 0 19 5 19 10 0 6 4 10 9 10 5 0 22
5 38 12 15 6 33 12 38 14 6 1 53 17 105 34 52 18 102 33 110 35 8 2 62 15 120
29 102 24 280 63 330 72 14 2 39 7 55 11 17 4 35 7 40 8 6 0 24 4 40 8 17 3
44 9 60 11 17 3 98 17 180 31 205 36 205 36 245 40 19 3 44 6 55 9 11 2 45 7
76 10 31 4 65 8 75 10 11 2 48 7 84 11 36 3 78 8 93 10 53 6 167 17 225 20 31
2 59 4 62 5 3 0 -2 5 -10 10 -14 9 -578 6 -700 -4 -112 -9 -266 -24 -320 -31
-19 -3 -55 -7 -80 -10 -25 -2 -56 -6 -70 -8 -14 -3 -54 -7 -90 -11 -36 -4 -72
-9 -80 -11 -8 -2 -33 -7 -55 -10 -23 -3 -52 -7 -65 -10 -25 -5 -116 -22 -167
-31 -16 -3 -55 -12 -88 -21 -33 -8 -67 -16 -75 -18 -157 -31 -457 -154 -514
-211 -12 -12 -40 -27 -62 -33 -33 -9 -43 -17 -47 -39 -7 -30 -1 -258 7 -310 5
-32 13 -82 21 -139 2 -15 7 -39 10 -53 3 -14 8 -41 11 -60 13 -79 81 -369 104
-445 6 -16 28 -84 51 -150 22 -66 41 -126 42 -132 0 -7 4 -13 9 -13 4 0 8 -6
8 -14 0 -8 13 -43 29 -78 16 -35 32 -73 35 -85 4 -11 13 -26 21 -33 10 -9 9 6
-7 61 -11 41 -21 78 -23 84 -1 5 -4 17 -7 25 -19 51 -68 243 -72 282 -1 13 -5
28 -8 33 -3 6 -9 32 -12 59 -4 27 -9 52 -11 55 -3 6 -7 30 -20 116 -7 42 -12
73 -19 115 -3 14 -8 48 -11 75 -3 28 -8 64 -10 80 -6 33 -12 96 -21 190 l-5
60 21 -24 c12 -14 31 -26 42 -28 11 -2 33 -12 48 -23 16 -11 31 -20 34 -20 3
0 25 -9 49 -20 49 -22 187 -69 237 -81 109 -24 178 -39 200 -43 14 -3 25 -5
25 -6 0 -1 20 -3 44 -6 25 -2 56 -7 70 -10 29 -6 58 -9 176 -19 44 -4 96 -8
115 -10 134 -12 382 -19 660 -19 317 0 504 7 740 28 102 9 159 14 235 21 39 3
81 8 95 11 14 2 48 7 75 10 63 7 114 14 140 18 11 2 38 6 60 10 23 3 52 8 65
11 13 3 40 7 60 10 19 3 76 14 125 25 50 11 101 23 115 26 201 43 484 147 589
215 l33 22 -7 -44 c-4 -24 -8 -53 -10 -64 -2 -11 -4 -20 -5 -20 -1 0 -3 -9 -4
-20 -6 -39 -28 -170 -40 -231 -2 -12 -7 -37 -10 -55 -3 -19 -8 -45 -11 -59 -3
-14 -8 -38 -11 -55 -2 -16 -9 -46 -14 -65 -5 -19 -12 -53 -16 -75 -3 -22 -8
-43 -11 -47 -2 -5 -6 -16 -8 -26 -46 -239 -235 -712 -359 -896 -25 -38 -46
-71 -46 -73 0 -11 -113 -143 -176 -207 -81 -80 -202 -179 -254 -206 -14 -7
-27 -16 -30 -20 -15 -23 -340 -170 -340 -155 0 3 -12 -3 -27 -12 -15 -10 -28
-17 -30 -15 -2 1 -4 2 -5 1 -2 0 -10 -2 -18 -4 -8 -1 -40 -8 -70 -14 -30 -6
-66 -14 -80 -16 -14 -3 -45 -8 -70 -10 -25 -3 -58 -7 -75 -10 -107 -17 -414
-37 -590 -38 -119 0 -232 7 -290 19 -16 3 -34 7 -40 8 -5 1 -16 5 -22 9 -7 5
-13 6 -13 3 0 -3 -20 3 -45 14 -57 24 -58 10 -2 -28 70 -47 204 -100 295 -117
14 -2 48 -9 76 -14 28 -5 58 -10 66 -10 21 -1 75 -9 75 -11 0 -2 47 -5 195
-15 114 -8 300 -8 307 -1 3 3 14 1 24 -5 11 -5 19 -6 19 -1 0 4 15 8 33 8 129
3 389 73 544 146 86 40 222 120 261 153 17 14 33 21 36 16 3 -5 21 -6 41 -1
19 4 35 5 35 1 0 -3 15 -6 33 -7 17 0 55 -4 82 -8 28 -4 60 -9 71 -11 34 -5
146 -62 178 -91 52 -46 35 -88 -59 -148 -105 -67 -264 -129 -460 -181 -86 -23
-112 -29 -172 -40 -16 -3 -61 -12 -102 -21 -40 -9 -81 -14 -92 -11 -10 3 -19
1 -21 -4 -2 -5 -25 -11 -53 -14 -55 -6 -83 -9 -165 -20 -81 -11 -106 -13 -200
-20 -47 -4 -101 -8 -120 -10 -27 -3 -448 -17 -505 -17 -5 0 -86 3 -180 6 -173
6 -234 10 -340 22 -33 4 -73 8 -90 10 -16 1 -30 3 -30 4 0 2 -9 4 -21 5 -11 1
-38 6 -60 10 -21 5 -43 7 -48 6 -4 -1 -14 3 -20 9 -7 5 -15 8 -18 5 -3 -3 -21
2 -41 10 -20 8 -42 15 -49 14 -41 -1 179 -67 277 -83 17 -2 30 -5 30 -6 0 -1
11 -3 25 -5 14 -1 45 -6 70 -9 94 -14 173 -21 370 -32 136 -8 472 -10 510 -4
19 3 50 3 68 -1 17 -3 32 -4 32 0 0 4 15 7 33 7 38 1 188 12 237 19 19 2 58 6
85 9 55 5 88 10 220 32 119 20 126 21 155 28 14 4 39 8 55 10 17 2 37 6 45 9
8 3 65 17 125 32 113 28 215 62 295 97 76 33 174 82 186 93 6 6 27 23 47 38
39 31 62 84 53 121 -15 62 -136 143 -246 165 -127 25 -151 28 -186 24 l-38 -4
28 28 c28 28 29 28 145 26 114 -2 166 -7 281 -27 52 -10 133 -34 182 -55 47
-20 121 -87 112 -102 -3 -5 -1 -9 4 -9 20 0 1 -92 -27 -124 -87 -101 -201
-188 -326 -251 -33 -16 -62 -33 -65 -36 -3 -3 -23 -12 -45 -19 -22 -7 -44 -16
-50 -20 -5 -4 -28 -13 -50 -20 -22 -7 -46 -18 -54 -24 -8 -6 -17 -10 -20 -10
-6 2 -21 -2 -48 -13 -10 -3 -22 -7 -28 -8 -5 -2 -37 -12 -70 -23 -57 -19 -204
-61 -235 -67 -8 -2 -15 -4 -15 -5 0 -2 2 -1 -135 -30 -58 -12 -116 -23 -130
-25 -14 -2 -41 -6 -60 -9 -19 -4 -46 -8 -60 -11 -14 -2 -47 -7 -75 -10 -27 -3
-66 -7 -85 -10 -186 -22 -303 -28 -560 -27 -258 1 -345 5 -595 27 -33 3 -87 8
-120 11 -33 2 -80 7 -105 9 -25 2 -66 6 -90 9 -25 3 -72 8 -105 12 -33 3 -71
8 -85 10 -14 3 -41 7 -60 9 -19 2 -51 7 -70 10 -19 3 -52 8 -74 11 -21 3 -48
8 -60 10 -11 2 -37 7 -56 10 -19 3 -53 10 -75 16 -22 5 -49 12 -59 14 -55 10
-149 49 -185 75 -50 36 -60 37 -27 4 14 -14 30 -25 36 -25 5 0 10 -4 10 -8 0
-7 22 -18 125 -62 17 -7 58 -21 75 -25 3 -1 25 -7 50 -14 25 -7 52 -15 60 -17
8 -1 47 -10 85 -19 39 -9 81 -17 95 -19 14 -2 36 -6 50 -9 14 -3 41 -8 60 -11
19 -3 46 -8 60 -11 13 -2 42 -7 65 -10 22 -3 51 -8 65 -10 27 -5 88 -13 160
-21 25 -3 56 -7 70 -9 192 -25 410 -37 655 -38 153 -1 360 8 455 18 19 2 60 6
90 9 30 3 71 8 90 11 19 3 49 7 65 9 17 3 46 7 65 10 19 3 51 8 70 11 56 8
139 24 158 29 9 3 31 8 47 10 17 3 64 15 105 26 41 11 86 23 100 26 13 3 80
23 147 45 68 22 126 40 130 41 5 1 32 12 61 25 29 12 59 23 67 23 8 0 15 5 15
11 0 5 4 8 8 5 20 -12 303 145 389 217 75 62 148 157 157 204 2 10 5 23 6 28
1 6 2 27 1 48 -1 32 -10 47 -53 90 -35 34 -71 59 -103 71 -27 10 -57 20 -65
23 -19 8 -18 7 -60 16 -19 4 -46 9 -60 12 -51 11 -116 18 -167 19 -29 1 -53 3
-53 6 0 3 -30 3 -67 2 -76 -4 -76 -6 0 71 20 21 37 42 37 47 0 4 7 11 16 14 8
3 13 2 10 -2 -2 -4 2 -16 10 -27 15 -20 15 -20 19 12 4 37 51 106 107 158 171
158 275 235 402 294 80 38 282 120 308 125 7 2 31 11 52 20 22 10 47 19 56 21
24 5 188 69 255 101 120 56 243 163 322 280 43 63 104 179 121 229 6 17 13 39
18 50 11 31 13 37 19 75 4 19 10 51 14 70 8 39 6 150 -3 193 -23 105 -80 189
-181 265 -5 4 -39 19 -75 32 -91 35 -227 35 -365 0 -27 -7 -54 -17 -59 -21 -6
-5 -16 -9 -23 -9 -14 0 -125 -49 -133 -59 -3 -3 -25 -20 -49 -36 -57 -38 -159
-140 -212 -210 -23 -30 -43 -55 -46 -55 -2 0 -2 4 1 9 3 5 8 33 11 62 3 30 7
70 10 89 3 19 7 60 10 90 8 73 14 127 20 170 3 19 7 61 10 93 3 43 13 73 39
115 76 127 86 240 28 325 -17 24 -42 51 -55 60 -13 8 -31 22 -38 29 -53 48
-344 172 -450 191 -13 3 -44 10 -69 17 -25 7 -52 14 -60 15 -8 2 -35 8 -60 13
-25 6 -65 14 -90 17 -24 4 -47 8 -50 10 -5 3 -82 14 -135 20 -16 2 -46 6 -65
9 -32 6 -67 10 -205 21 -120 10 -632 24 -638 18z m650 -609 c-3 -3 -12 -4 -19
-1 -8 3 -5 6 6 6 11 1 17 -2 13 -5z m151 -8 c12 0 22 -4 22 -8 0 -5 -26 -5
-57 -1 -32 4 -68 7 -80 8 -13 0 -23 3 -23 8 0 4 26 4 58 0 31 -4 67 -7 80 -7z
m-478 -21 c47 -4 93 -7 102 -7 10 0 20 -3 22 -7 3 -4 -32 -6 -77 -3 -198 13
-1271 3 -1295 -12 -6 -3 -13 -2 -17 4 -3 5 4 11 17 11 13 1 37 3 53 5 17 1
118 6 225 9 107 3 196 7 197 9 6 6 698 -2 773 -9z m630 0 c14 -2 31 -4 38 -4
6 -1 12 -5 12 -10 0 -9 -33 -6 -100 8 -20 4 -43 7 -53 5 -9 -1 -17 1 -17 6 0
7 54 5 120 -5z m-440 -25 c0 -4 -11 -5 -25 -2 -14 2 -25 8 -25 12 0 4 11 5 25
2 14 -2 25 -8 25 -12z m752 -35 c16 -2 44 -8 63 -14 19 -5 35 -7 35 -4 0 3 6
0 13 -6 8 -6 18 -7 22 -3 5 4 5 2 2 -5 -5 -8 -19 -8 -53 3 -25 7 -62 15 -82
18 -20 2 -44 7 -52 10 -8 3 -28 8 -45 10 -16 3 -43 7 -60 10 -16 3 -45 8 -62
11 -18 3 -33 9 -33 14 0 4 51 -3 113 -16 61 -13 124 -25 139 -28z m-2223 31
c-7 -6 -100 -14 -94 -8 3 3 24 8 48 12 40 6 56 5 46 -4z m1501 4 c0 -5 -4 -10
-10 -10 -5 0 -10 5 -10 10 0 6 5 10 10 10 6 0 10 -4 10 -10z m53 -7 c-7 -2
-19 -2 -25 0 -7 3 -2 5 12 5 14 0 19 -2 13 -5z m-1113 -56 c-10 -8 -80 -16
-80 -8 0 4 19 8 42 10 23 1 40 0 38 -2z m-91 -11 c-4 -4 -69 -13 -154 -21 -22
-2 -62 -7 -90 -10 -27 -4 -63 -8 -80 -10 -16 -2 -52 -6 -80 -10 -27 -3 -68 -7
-90 -10 -22 -2 -51 -7 -65 -10 -14 -3 -47 -8 -75 -10 -27 -2 -50 -5 -50 -6 0
-1 -9 -3 -20 -4 -49 -7 -92 -14 -110 -18 -11 -2 -42 -8 -70 -12 -27 -5 -52 -9
-55 -10 -3 -1 -25 -5 -50 -9 -25 -4 -72 -15 -105 -23 -33 -9 -69 -17 -80 -18
-11 -1 -21 -4 -22 -5 -2 -1 -6 -3 -10 -5 -5 -1 -15 -4 -23 -8 -73 -28 -157
-57 -165 -57 -10 0 12 25 23 25 4 1 17 6 30 13 12 7 22 10 22 6 0 -3 6 -2 13
3 12 10 123 51 155 56 9 2 36 9 60 16 24 7 55 14 70 16 15 2 52 8 82 14 50 10
72 13 150 26 14 2 50 7 80 11 30 3 64 8 75 9 92 13 171 23 245 30 30 3 71 7
90 10 19 3 71 7 114 10 44 3 80 6 82 7 1 2 26 4 55 6 29 1 51 1 48 -2z m2136
-26 c3 -6 -1 -7 -9 -4 -18 7 -21 14 -7 14 6 0 13 -4 16 -10z m-1705 -39 c0 -5
-9 -7 -20 -4 -11 3 -20 7 -20 9 0 2 9 4 20 4 11 0 20 -4 20 -9z m695 -5 c79
-9 135 -14 163 -15 12 -1 22 -6 22 -12 0 -5 -3 -8 -8 -5 -7 4 -63 9 -247 23
-44 3 -198 6 -342 7 -144 1 -264 4 -268 7 -8 9 603 3 680 -5z m255 -28 c22 -1
43 -4 45 -8 7 -11 -89 1 -100 12 -7 8 -6 9 2 4 6 -3 30 -7 53 -8z m-1170 -16
c0 -5 -6 -9 -12 -9 -59 -1 -241 -19 -285 -28 -13 -3 -23 -1 -23 5 0 5 10 11
23 11 12 1 36 3 52 4 17 2 73 6 125 10 52 4 97 9 99 11 8 7 21 4 21 -4z m53 1
c-7 -2 -21 -2 -30 0 -10 3 -4 5 12 5 17 0 24 -2 18 -5z m1204 1 c-3 -3 -12 -4
-19 -1 -8 3 -5 6 6 6 11 1 17 -2 13 -5z m-1587 -35 c0 -3 -28 -10 -62 -13 -35
-4 -74 -9 -88 -11 -43 -6 -124 -17 -155 -22 -16 -2 -38 -4 -48 -4 -10 0 -29
-4 -41 -9 -13 -4 -28 -5 -35 0 -11 6 75 23 189 37 19 2 51 6 70 8 19 2 35 4
35 5 0 1 22 3 50 6 27 3 51 6 52 8 6 6 33 2 33 -5z m1980 -49 c-8 -5 -19 -10
-25 -10 -5 0 -3 5 5 10 8 5 20 10 25 10 6 0 3 -5 -5 -10z m-2430 -10 c0 -5
-17 -10 -37 -11 -37 0 -56 -3 -118 -14 -18 -3 -26 -2 -20 4 6 5 42 12 80 16
39 4 72 9 74 11 8 8 21 4 21 -6z m2384 -5 c-4 -8 -15 -15 -26 -15 -11 0 -27
-4 -36 -9 -30 -15 -72 -22 -72 -11 0 5 3 9 8 8 11 -4 106 24 117 33 13 13 15
11 9 -6z m-2587 -21 c-3 -3 -12 -4 -19 -1 -8 3 -5 6 6 6 11 1 17 -2 13 -5z
m2443 -24 c0 -3 -57 -14 -127 -24 -71 -10 -137 -20 -148 -22 -25 -4 -118 -15
-165 -19 -19 -1 -35 -4 -35 -5 0 -1 -25 -3 -55 -5 -30 -1 -73 -5 -95 -8 -76
-11 -390 -33 -615 -42 -58 -2 -163 -7 -235 -10 -71 -3 -126 -3 -123 0 3 4 37
8 75 10 37 2 115 7 173 10 58 3 130 8 160 10 30 3 98 7 150 10 100 5 232 14
315 20 28 3 79 7 115 10 81 6 166 14 205 20 27 4 62 8 184 21 57 6 164 23 168
28 5 5 53 2 53 -4z m-2740 -49 c0 -5 -17 -7 -37 -4 -52 7 -54 13 -5 13 23 0
42 -4 42 -9z m60 -3 c0 -12 -38 -10 -45 2 -4 6 5 9 19 8 15 -1 26 -6 26 -10z
m50 -10 c0 -11 -12 -10 -30 2 -12 7 -10 9 8 7 12 0 22 -5 22 -9z m60 -9 c0
-10 -12 -11 -34 -3 -25 10 -19 22 9 16 14 -2 25 -8 25 -13z m140 -29 c0 -4
-19 -4 -42 1 -24 4 -49 8 -55 9 -7 0 -13 4 -13 8 0 5 25 4 55 -1 30 -6 55 -13
55 -17z m69 -7 c20 -3 41 -9 46 -15 7 -6 5 -7 -5 -4 -8 3 -31 8 -50 10 -19 2
-38 4 -42 5 -5 0 -8 6 -8 12 0 5 5 7 11 3 6 -3 28 -9 48 -11z m128 -26 c2 -3
-8 -4 -22 -4 -14 0 -25 3 -25 8 0 7 38 4 47 -4z m613 0 c0 -9 -11 -12 -37 -8
l-38 5 35 7 c19 3 36 7 38 8 1 0 2 -5 2 -12z m3160 -4 c87 -24 148 -71 172
-132 15 -40 19 -158 7 -225 -9 -51 -70 -200 -88 -216 -4 -3 -19 -24 -35 -47
-24 -36 -105 -117 -170 -171 -28 -23 -159 -88 -231 -115 -38 -14 -122 -45
-185 -68 -230 -83 -421 -163 -493 -208 -21 -13 -40 -21 -43 -19 -2 3 4 25 15
50 56 131 157 470 191 640 12 63 55 124 177 249 65 68 171 155 203 167 8 3 21
12 28 19 7 7 25 16 40 20 15 3 29 9 32 12 7 9 71 32 104 38 16 2 37 8 47 11
26 10 187 6 229 -5z m-3740 -3 c0 -5 -2 -10 -4 -10 -3 0 -8 5 -11 10 -3 6 -1
10 4 10 6 0 11 -4 11 -10z m500 1 c0 -5 -9 -7 -20 -4 -11 3 -20 7 -20 9 0 2 9
4 20 4 11 0 20 -4 20 -9z"/>
</g>
</svg>
